<!--?xml version="1.0" encoding="utf-8"?-->
<!-- Generator: Adobe Illustrator 18.1.1, SVG Export Plug-In . SVG Version: 6.00 Build 0)  -->

<svg version="1.1" id="_x31_0" xmlns="http://www.w3.org/2000/svg" xmlns:xlink="http://www.w3.org/1999/xlink" x="0px" y="0px" viewBox="0 0 512 512" style="width: 256px; height: 256px; opacity: 1;" xml:space="preserve">
<style type="text/css">
	.st0{fill:#374149;}
</style>
<g>
	<path class="st0" d="M512,234.812c-0.152,0.062-0.278,0.117-0.426,0.179c0.129-0.113,0.234-0.218,0.363-0.328
		c-39.265,16.322-56.243,26.036-55.966,17.198c0.05-0.606,0.102-1.211,0.378-1.965c-0.039,0.023-0.07,0.039-0.11,0.062
		c0.016-0.074,0.012-0.125,0.028-0.199c-17.541,10.526-26.403,9.554-26.442,2.558c0.039-0.5-0.031-0.949,0.133-1.5
		c-0.035,0.035-0.074,0.074-0.114,0.11c0.012-0.082-0.007-0.141,0.004-0.222c-19.658,18.954-36.956,32.144-47.244,33.777
		c-0.121,0.016-0.246,0.047-0.363,0.062c-2.426,0.324-4.437-0.031-5.987-1.125c-0.18-0.125-0.34-0.289-0.508-0.438
		c-0.39-0.34-0.774-0.687-1.094-1.14c-0.301-0.43-0.5-0.871-0.711-1.313c-0.137-0.293-0.266-0.59-0.367-0.894
		c-0.297-0.898-0.414-1.812-0.378-2.734c0.008-0.325,0.027-0.645,0.074-0.977c1.202-8.12,13.553-16.728,22.614-20.502
		c9.135-3.808,28.699-12.217,35.917-15.322c1.52-0.617,2.519-1.003,2.711-1.034c-0.078-0.008-0.16-0.02-0.242-0.028
		c0.187-0.082,0.297-0.129,0.297-0.129c-12.542-1.285-25.934-3.46-26.184-10.085c-0.004-0.117,0-0.234,0.004-0.351
		c0.098-3.05,2.874-7.003,9.666-12.21c17.881-13.694,24.325-20.552,26.184-22.731c0.34-0.352,0.59-0.61,0.692-0.68
		c-0.028,0.008-0.122,0.043-0.164,0.055c0.09-0.114,0.179-0.23,0.179-0.23s-20.755,7.55-27.833,0
		c-3.155-9.858,9.808-20.678,14.986-24.247c1.008-0.66,1.738-1.062,1.938-1.082c-0.035-0.011-0.058-0.054-0.098-0.066
		c0.047-0.023,0.129-0.07,0.156-0.082c-10.026-3.855-2.402-40.155,3.293-60.766c1.281-4.484,2.488-8.28,3.422-10.826
		c-0.074,0.074-0.141,0.141-0.215,0.21c0.035-0.098,0.074-0.234,0.106-0.324c-36.507,34.683-59.274,61.731-63.714,46.814
		c-0.106-0.476-0.246-0.894-0.305-1.445c-0.027,0.047-0.051,0.082-0.078,0.129c-0.015-0.078-0.047-0.125-0.062-0.211
		c-11.753,20.67-20.701,23.209-23.294,16.944c-0.054-0.153-0.136-0.274-0.183-0.43c-0.078-0.231-0.129-0.493-0.191-0.738
		c-0.153-0.77-0.258-1.59-0.234-2.527c-0.035,0.156-0.066,0.281-0.106,0.438c-0.012-0.164-0.043-0.305-0.05-0.477
		c-5.242,23.158-9.683,31.305-16.678,20.021c-0.519-0.906-1.038-1.851-1.566-2.999c-0.012,0.058-0.024,0.113-0.039,0.172
		c-0.039-0.074-0.074-0.133-0.118-0.207c-10.378,46.233-24.059,64.629-30.191,60.856s-7.546-42.929,8.964-52.365
		c-1.153-8.452,11.455-27.844,16.178-34.758c0.957-1.336,1.629-2.214,1.789-2.359c-0.058,0.016-0.114,0.023-0.176,0.035
		c0.058-0.078,0.137-0.187,0.137-0.187c-13.17,3.355-21.22-0.66-24.598-7.75c-0.172-0.359-0.332-0.722-0.481-1.097
		c-0.558-1.418-0.953-2.934-1.168-4.535c-0.027-0.206-0.054-0.414-0.078-0.625c-0.168-1.574-0.153-3.222-0.004-4.902
		c0.062-0.617,0.129-1.234,0.234-1.859c0.152-0.965,0.343-1.938,0.594-2.914c0.5-1.801,1.078-3.609,1.937-5.414
		c-0.034,0.008-0.058,0.008-0.09,0.012c0.024-0.055,0.039-0.114,0.066-0.168c-11.385,1.625-16.92,0.266-19.166-3.55
		c-0.242-0.406-0.43-0.855-0.598-1.316c-1.156-3.18-0.695-7.659,0.406-13.237c0.313-1.426,0.606-2.824,0.992-4.386
		c-0.023,0.008-0.047,0.004-0.07,0.012c0.012-0.059,0.023-0.11,0.035-0.168c-18.4,4.246-17.927-17.928-15.096-27.36
		c-9.674-6.327-15.099-31.375-16.966-41.702c-0.414-2.472-0.621-4.124-0.614-4.452c-0.007,0.066-0.042,0.277-0.066,0.449
		c-0.05-0.324-0.082-0.527-0.082-0.527s-5.464,38.21-17.728,46.233c2.796,9.315,3.257,31.008-14.448,27.462
		c-0.164-0.055-0.332-0.07-0.492-0.133c0.004,0.019,0.008,0.038,0.012,0.058c-0.059-0.012-0.11-0.012-0.168-0.027
		c1.714,7.718,2.816,13.756,1.37,17.763c-0.171,0.469-0.363,0.922-0.605,1.332c-2.117,3.59-7.202,4.972-17.264,3.773
		c-0.59-0.102-1.136-0.148-1.754-0.285c0.012,0.027,0.016,0.054,0.027,0.082c-0.062-0.008-0.113-0.011-0.175-0.019
		c0.461,1.035,0.859,2.07,1.21,3.109c0.02,0.058,0.039,0.114,0.058,0.172c1.383,4.175,1.879,8.331,1.461,12.092
		c-0.015,0.125-0.031,0.25-0.046,0.371c-0.211,1.641-0.618,3.191-1.184,4.644c-0.156,0.386-0.32,0.762-0.499,1.133
		c-3.172,6.624-10.464,10.49-22.178,8.214c-0.762-0.187-1.515-0.309-2.281-0.578c0.016,0.019,0.074,0.105,0.098,0.136
		c-0.078-0.015-0.148-0.023-0.226-0.042c0,0,19.342,26.891,17.927,37.269c16.51,9.436,15.096,48.592,8.964,52.365
		c-4.964,3.054-14.866-8.425-23.966-37.402c-0.082-0.27-0.168-0.535-0.25-0.809c-0.378-1.226-0.754-2.542-1.133-3.828
		c-1.636-5.71-3.222-11.928-4.702-18.743c-0.031,0.058-0.058,0.094-0.09,0.152c-0.016-0.078-0.035-0.148-0.054-0.226
		c-6.804,13.21-11.234,9.722-15.878-6.902c-0.773-2.914-1.554-6.198-2.358-10.077c-0.008,0.152-0.055,0.262-0.063,0.41
		c-0.035-0.145-0.066-0.27-0.098-0.418c-0.426,9.327-8.479,10.593-20.036-6.698c-1.286-1.988-2.578-4.105-3.867-6.479
		c-0.011,0.058-0.035,0.098-0.046,0.16c-0.035-0.066-0.074-0.122-0.11-0.192c-3.152,17.553-24.36-6.979-59.055-40.393
		c-1.656-1.653-3.266-3.238-4.957-4.945c0.031,0.082,0.066,0.199,0.094,0.285c-0.082-0.078-0.16-0.156-0.242-0.234
		c4.41,12.795,17.064,60.227,8.655,70.183c-0.57,0.633-1.234,1.098-2,1.374c0.016,0.004,0.07,0.035,0.094,0.047
		c-0.054,0.023-0.09,0.082-0.144,0.102c1.414,0.473,20.755,13.682,16.982,25.478c-6.136,6.542-22.528,1.746-26.79,0.355
		c-0.441-0.176-0.777-0.321-0.874-0.398c0.015,0.023,0.086,0.109,0.113,0.141c-0.175-0.059-0.285-0.098-0.285-0.098
		s4.718,6.604,26.891,23.586c6.792,5.202,9.573,9.155,9.67,12.206c0,0.121,0.008,0.238,0,0.355
		c-0.199,5.289-8.768,7.738-18.603,9.163c-2.464,0.32-4.991,0.578-7.514,0.774c0,0,0.117,0.05,0.258,0.113
		c-0.106,0.012-0.214,0.024-0.32,0.035c0,0,27.364,11.796,38.682,16.514c9.062,3.774,21.408,12.378,22.614,20.502
		c0.047,0.328,0.066,0.652,0.074,0.977c0.031,0.926-0.082,1.835-0.378,2.734c-0.102,0.305-0.234,0.602-0.371,0.898
		c-0.207,0.438-0.41,0.879-0.707,1.309c-0.32,0.453-0.703,0.797-1.094,1.14c-0.168,0.149-0.328,0.313-0.512,0.442
		c-1.55,1.09-3.558,1.445-5.983,1.121c-0.118-0.015-0.242-0.046-0.363-0.062c-8.37-1.328-21.38-10.319-36.527-23.829
		c-3.667-3.324-7.257-6.706-10.561-9.976c0.011,0.066-0.008,0.114,0.004,0.176c-0.055-0.05-0.106-0.098-0.16-0.148
		c1.312,7.866-6.402,9.92-22.537,1.191c-1.23-0.699-2.433-1.348-3.726-2.172c0.011,0.051,0,0.078,0.011,0.129
		c-0.058-0.035-0.11-0.054-0.168-0.094c2.687,11.647-12.112,3.289-49.556-12.53c-2-0.894-3.894-1.722-6.007-2.687
		c0.117,0.106,0.218,0.203,0.34,0.309c-0.153-0.066-0.294-0.126-0.446-0.188c26.813,23.294,29.454,39.621,24.731,47.467
		c-0.336,0.515-0.699,1-1.105,1.441c0.023,0.004,0.042,0.012,0.062,0.016c-0.035,0.043-0.062,0.098-0.102,0.141
		c20.341,5.19,23.982,13.162,19.349,21.001c-0.418,0.653-0.828,1.305-1.386,1.957c0.023,0.004,0.043,0.012,0.066,0.016
		c-0.035,0.047-0.062,0.094-0.102,0.141c23.595,5.246,27.746,9.686,23.364,18.181c-0.355,0.633-0.687,1.25-1.163,1.946
		c0.019,0.004,0.038,0.011,0.058,0.015c-0.031,0.047-0.055,0.094-0.086,0.145c26.891,4.718,29.25,15.568,19.814,19.342
		c-7.976,3.19-16.717,8.417-47.698,16.506c-5.647,1.434-12.03,2.953-19.294,4.566c0.16,0,0.402,0.02,0.574,0.024
		c-0.199,0.046-0.371,0.09-0.574,0.136c11.323,0,66.046,10.378,74.542,19.814c2.75-1.031,5.262-1.398,7.425-1.16
		c0.234,0.027,0.438,0.094,0.664,0.137c5.594,0.996,8.343,6.554,5.695,16.318c-0.344,1.129-0.649,2.242-1.149,3.445
		c0.058-0.043,0.118-0.07,0.172-0.118c-0.031,0.09-0.039,0.157-0.07,0.246c22.091-17.182,37.074-7.078,42.819,2.058
		c0.187,0.308,0.378,0.621,0.539,0.926c0.137,0.238,0.269,0.48,0.394,0.718c0.382,0.797,0.699,1.574,0.922,2.309
		c0.019-0.035,0.054-0.063,0.07-0.094c0.023,0.055,0.054,0.114,0.074,0.168c4.53-8.655,23.274-13.654,40.038-12.936
		c0.16,0.008,0.309,0.028,0.465,0.035c2.274,0.11,4.519,0.313,6.671,0.641c14.889,2.281,34.359,10.334,37.769,21.954
		c0.09,0.344,0.309,0.672,0.371,1.019l0.015-0.004c0.012,0.051,0.047,0.098,0.059,0.149c2.09-1.09,6.05-1.996,8.01-1.914
		c6.495,0.266,7.624,9.104,6.808,13.744c-1.606,9.3-3.894,17.752-6.351,24.685c-1.258,3.46-2.538,6.57-3.937,9.151
		c-1.309,2.64-2.703,4.753-3.87,6.46c-1.137,1.734-2.293,2.859-2.946,3.726c-0.718,0.812-1.101,1.246-1.101,1.246l-0.258,0.289
		c-0.945,1.082-1.652,2.422-1.995,3.976c-0.766,3.477,0.781,7.234,3.777,9.163c4.746,3.054,10.838,1.004,12.916-3.953
		c0,0,0.282-0.671,0.809-1.933c0.519-1.25,1.445-3.023,2.285-5.355c0.906-2.304,2.031-5.07,3.074-8.269
		c0.606-1.578,1.125-3.281,1.656-5.07c0.566-1.781,1.18-3.648,1.664-5.616c2.23-7.823,3.937-17.049,5.129-26.903
		c0.64-4.925,0.73-5.082,1.335-7.202c2.156-7.57,6.414-9.323,12.358-7.94c1.374,0.32,2.8,0.866,4.249,1.59
		c0.055,0.035,0.126,0.058,0.18,0.098c0-0.012,0.008-0.02,0.008-0.027c0.05,0.027,0.098,0.027,0.148,0.054
		c2.359-12.268,23.442-24.95,38.925-26.646c12.901-1.41,31.825,3.278,41.394,10.346c0.715,0.547,1.438,1.094,2.035,1.672
		c0.242,0.222,0.453,0.453,0.675,0.683c0.91,0.981,1.695,1.988,2.207,3.035c0.015-0.035,0.035-0.074,0.046-0.11
		c0.032,0.055,0.078,0.106,0.106,0.16c2.875-8.202,15.393-21.704,35.367-12.045c0.355,0.175,0.71,0.363,1.066,0.55
		c1.034,0.539,2.086,1.129,3.159,1.793c1.687,1.09,3.378,2.269,5.078,3.671c-0.027-0.07-0.039-0.133-0.062-0.203
		c0.07,0.055,0.141,0.094,0.211,0.149c-4.484-12.065-1.618-18.779,4.648-19.892c0.226-0.043,0.43-0.11,0.664-0.137
		c2.163-0.238,4.675,0.129,7.425,1.16c6.983-7.761,45.186-16.142,64.851-18.885c3.831-0.488,7.034-0.785,9.104-0.785
		c0.192,0,0.375,0.004,0.547,0.008c-0.191-0.043-0.359-0.082-0.55-0.125c0.175-0.008,0.43-0.028,0.586-0.028
		c-47.174-10.85-57.552-17.454-66.988-21.231c-8.823-3.527-7.323-13.241,14.885-18.346c1.535-0.332,3.113-0.645,4.793-0.914
		c-0.012-0.015-0.016-0.031-0.028-0.05c0.059-0.008,0.106-0.019,0.164-0.031c-5.702-9.214-3.628-13.94,17.174-19.111
		c1.534-0.359,3.132-0.718,4.874-1.078c-0.016-0.02-0.024-0.039-0.039-0.058c0.054-0.012,0.106-0.028,0.164-0.039
		c-6.179-7.941-4.507-16.295,13.873-21.974c1.25-0.363,2.551-0.71,3.93-1.034c-0.016-0.02-0.023-0.043-0.039-0.063
		c0.054-0.011,0.106-0.031,0.164-0.042c-4.8-5.538-5.198-17.162,8.605-33.922C500.834,245.15,505.743,240.155,512,234.812z" style="fill: rgb(216, 82, 6);"></path>
</g>
</svg>
